<svg width="66" height="55" viewBox="0 0 66 55" fill="none" xmlns="http://www.w3.org/2000/svg">
<path d="M0.00630002 34.1185C-0.0512278 33.638 0.291647 33.2019 0.772141 33.1443L31.6398 29.4892L39.3439 28.5666L64.4585 25.605C64.9391 25.5475 65.3752 25.8904 65.4328 26.3709L65.9536 30.7211C66.0111 31.2016 65.6683 31.6377 65.1878 31.6953L39.2675 34.7533L27.2233 36.1957L1.50136 39.2346C1.02085 39.2921 0.584661 38.9492 0.52713 38.4687L0.00630002 34.1185Z" fill="white"/>
<path d="M15.143 7.17189C14.9097 6.74793 15.0642 6.21506 15.4882 5.98171L19.3266 3.869C19.7506 3.63566 20.2834 3.79017 20.5168 4.21412L30.1371 21.1673C30.3705 21.5913 30.216 22.1241 29.792 22.3575L25.9535 24.4702C25.5296 24.7035 24.9967 24.549 24.7634 24.1251L15.143 7.17189ZM32.7233 35.5846C32.49 35.1607 32.6445 34.6278 33.0685 34.3945L36.9069 32.2817C37.3309 32.0484 37.8637 32.2029 38.0971 32.6269L39.2675 34.7533L47.9945 50.6079C48.2278 51.0318 48.0733 51.5647 47.6494 51.7981L43.8109 53.9108C43.3869 54.1441 42.8541 53.9896 42.6207 53.5657L33.7717 37.4893L32.7233 35.5846Z" fill="white"/>
<path d="M50.7826 1.59714C51.2363 1.76534 51.4678 2.26955 51.2996 2.72331L50.5383 4.77725L50.2333 5.59337C47.2199 13.5848 43.5694 21.2631 39.3439 28.5666C37.5847 31.6073 35.7258 34.583 33.7717 37.4893C31.2842 41.1891 28.6423 44.7764 25.8555 48.2419C25.5802 48.5842 25.074 48.6236 24.7474 48.3298L21.3235 45.2498C21.0197 44.9765 20.9832 44.5133 21.2387 44.1944C23.3197 41.5975 25.3159 38.9298 27.2233 36.1957C28.7534 34.0023 30.2263 31.766 31.6398 29.4892C36.872 21.0615 41.2907 12.0769 44.7868 2.64543L45.5484 0.591365C45.7167 0.137655 46.2209 -0.093789 46.6746 0.0743994L50.7826 1.59714Z" fill="white"/>
</svg>
