<svg width="82" height="39" viewBox="0 0 82 39" fill="none" xmlns="http://www.w3.org/2000/svg">
<path fill-rule="evenodd" clip-rule="evenodd" d="M15.342 15.0017C15.9509 14.4039 15.5529 13.3653 14.7016 13.3306L0.932487 12.7706C0.41149 12.7494 2.15803e-06 12.3195 2.05852e-06 11.7964L0 0.975008C-1.02433e-07 0.43653 0.435114 7.50859e-06 0.971853 7.40374e-06L37.9022 1.89841e-07C38.439 8.49955e-08 38.8741 0.436524 38.8741 0.975001L38.8741 38.025C38.8741 38.5635 38.439 39 37.9022 39H27.387C26.8578 39 26.4259 38.5753 26.4153 38.0445L26.1527 24.8895C26.1356 24.0314 25.1015 23.6125 24.4953 24.2181L15.2565 33.447C14.8801 33.823 14.2724 33.8261 13.8922 33.4539L5.91804 25.6492C5.52754 25.267 5.52706 24.6373 5.91699 24.2545L15.342 15.0017Z" fill="#AE9C84"/>
<path d="M69.226 21.8866L69.2249 21.8855V18.9552C69.2249 15.5186 66.3289 12.7327 62.7566 12.7327C59.1843 12.7327 56.2884 15.5186 56.2884 18.9552V38.025C56.2884 38.5635 55.8533 39 55.3165 39H44.0978C43.561 39 43.1259 38.5635 43.1259 38.025V0.975001C43.1259 0.436524 43.561 0 44.0978 0H68.2264C68.7631 0 69.1982 0.436522 69.1982 0.975V4.9327C69.1982 9.24052 72.6791 12.7327 76.973 12.7327H81.0281C81.5649 12.7327 82 13.1692 82 13.7077V38.025C82 38.5635 81.5649 39 81.0281 39H70.1989C69.6622 39 69.2271 38.5635 69.2271 38.025V21.8877L69.226 21.8866Z" fill="#D7D4D4"/>
</svg>
