<svg width="27" height="21" viewBox="0 0 27 21" fill="none" xmlns="http://www.w3.org/2000/svg">
<path d="M0.686278 13.2934C0.664 13.1073 0.796776 12.9384 0.982843 12.9162L12.9361 11.5007L15.9194 11.1435L25.6449 9.99663C25.8309 9.97434 25.9998 10.1071 26.0221 10.2932L26.2238 11.9778C26.2461 12.1638 26.1133 12.3327 25.9272 12.355L15.8899 13.5392L11.2258 14.0978L1.26523 15.2745C1.07915 15.2968 0.910243 15.1641 0.887965 14.978L0.686278 13.2934Z" fill="white"/>
<path d="M6.54785 2.85856C6.45748 2.69438 6.51732 2.48803 6.6815 2.39767L8.16791 1.57954C8.33209 1.48918 8.53843 1.54901 8.62879 1.71319L12.3542 8.27816C12.4445 8.44233 12.3847 8.64868 12.2205 8.73905L10.7341 9.55717C10.5699 9.64754 10.3636 9.5877 10.2732 9.42353L6.54785 2.85856ZM13.3557 13.8612C13.2653 13.697 13.3251 13.4906 13.4893 13.4003L14.9757 12.5821C15.1399 12.4918 15.3462 12.5516 15.4366 12.7158L15.8899 13.5392L19.2693 19.6788C19.3597 19.8429 19.2998 20.0493 19.1356 20.1397L17.6492 20.9578C17.4851 21.0481 17.2787 20.9883 17.1884 20.8241L13.7617 14.5987L13.3557 13.8612Z" fill="white"/>
<path d="M20.3489 0.699783C20.5247 0.764917 20.6143 0.960167 20.5492 1.13588L20.2543 1.93125L20.1363 2.24729C18.9693 5.34188 17.5557 8.31526 15.9194 11.1435C15.2382 12.321 14.5184 13.4733 13.7617 14.5987C12.7984 16.0314 11.7753 17.4206 10.6962 18.7626C10.5896 18.8951 10.3935 18.9104 10.267 18.7966L8.94118 17.6039C8.82353 17.4981 8.80941 17.3187 8.90836 17.1952C9.71419 16.1896 10.4872 15.1565 11.2258 14.0978C11.8183 13.2484 12.3887 12.3824 12.9361 11.5007C14.9622 8.23717 16.6733 4.758 18.0271 1.10573L18.3221 0.310305C18.3872 0.134609 18.5825 0.0449849 18.7582 0.110114L20.3489 0.699783Z" fill="white"/>
</svg>
