<svg width="100" height="18" viewBox="0 0 100 18" fill="none" xmlns="http://www.w3.org/2000/svg">
<path fill-rule="evenodd" clip-rule="evenodd" d="M5.5639 7.51699C5.76532 7.31988 5.63368 6.97744 5.35209 6.96603L0.79758 6.78138C0.625247 6.7744 0.489137 6.63266 0.489136 6.46018L0.489136 2.89227C0.489136 2.71473 0.633061 2.5708 0.810602 2.5708L13.0263 2.5708C13.2038 2.5708 13.3478 2.71473 13.3478 2.89227L13.3478 15.108C13.3478 15.2855 13.2038 15.4294 13.0263 15.4294H9.54809C9.37306 15.4294 9.2302 15.2894 9.22669 15.1144L9.13983 10.7771C9.13416 10.4942 8.79212 10.356 8.5916 10.5557L5.53564 13.5985C5.41112 13.7225 5.21011 13.7236 5.08433 13.6008L2.44668 11.0276C2.31751 10.9015 2.31736 10.6939 2.44634 10.5677L5.5639 7.51699Z" fill="white"/>
<path d="M23.2671 9.787C23.2669 9.787 23.2667 9.78684 23.2667 9.78663V8.82049C23.2667 7.68742 22.3088 6.76888 21.1272 6.76888C19.9455 6.76888 18.9876 7.68742 18.9876 8.82049V15.108C18.9876 15.2855 18.8437 15.4294 18.6662 15.4294H14.9553C14.7777 15.4294 14.6338 15.2855 14.6338 15.108V2.89227C14.6338 2.71473 14.7777 2.5708 14.9553 2.5708H22.9364C23.114 2.5708 23.2579 2.71473 23.2579 2.89227V4.19715C23.2579 5.61748 24.4093 6.76888 25.8296 6.76888H27.1709C27.3485 6.76888 27.4924 6.9128 27.4924 7.09034V15.108C27.4924 15.2855 27.3485 15.4294 27.1709 15.4294H23.5889C23.4114 15.4294 23.2674 15.2855 23.2674 15.108V9.78737C23.2674 9.78717 23.2673 9.787 23.2671 9.787Z" fill="white"/>
<path d="M39.199 12.8364L33.4467 4.38382V4.04471H34.7027L40.4675 12.4973V12.8364H39.199ZM33.4467 12.8364V4.04471H34.7027V12.8364H33.4467ZM39.199 12.8364V4.04471H40.4675V12.8364H39.199ZM44.5863 13.0123C43.9583 13.0123 43.4015 12.8741 42.9159 12.5978C42.4386 12.3131 42.066 11.9196 41.7981 11.4172C41.5301 10.9148 41.3961 10.3329 41.3961 9.67141C41.3961 9.00994 41.5259 8.4322 41.7855 7.93819C42.0534 7.4358 42.4218 7.04646 42.8907 6.77015C43.368 6.48546 43.9164 6.34312 44.536 6.34312C45.1473 6.34312 45.679 6.48546 46.1311 6.77015C46.5916 7.05483 46.9475 7.45674 47.1987 7.97587C47.4582 8.48662 47.588 9.0853 47.588 9.77189V9.96028L47.3996 10.1487H42.0367V9.04343H46.9852L46.3446 9.29462C46.3279 8.91783 46.2358 8.59547 46.0683 8.32753C45.9092 8.0596 45.6957 7.85446 45.4278 7.71211C45.1682 7.5614 44.8752 7.48604 44.5486 7.48604C44.1969 7.48604 43.8746 7.56977 43.5815 7.73723C43.2885 7.90469 43.0582 8.13914 42.8907 8.44057C42.7317 8.73363 42.6521 9.07692 42.6521 9.47046V9.84724C42.6521 10.2324 42.7358 10.5799 42.9033 10.8897C43.0708 11.1911 43.301 11.4298 43.5941 11.6056C43.8871 11.7814 44.2179 11.8693 44.5863 11.8693C44.938 11.8693 45.2478 11.7814 45.5157 11.6056C45.792 11.4214 46.0097 11.1786 46.1688 10.8771H46.3195L47.3368 11.3167C47.094 11.8442 46.734 12.2587 46.2567 12.5601C45.7794 12.8615 45.2226 13.0123 44.5863 13.0123ZM54.1107 6.51895V12.8364H52.9175V11.1409L53.2566 11.2414C53.131 11.6014 52.9426 11.9154 52.6914 12.1833C52.4402 12.4429 52.143 12.648 51.7997 12.7987C51.4648 12.9411 51.1006 13.0123 50.707 13.0123C50.2632 13.0123 49.8613 12.916 49.5013 12.7234C49.1413 12.5224 48.8566 12.2336 48.6472 11.8568C48.4379 11.4716 48.3333 10.9985 48.3333 10.4375V6.51895H49.5892V10.0859C49.5892 10.5045 49.6478 10.8436 49.7651 11.1032C49.8906 11.3628 50.0623 11.5512 50.28 11.6684C50.4977 11.7772 50.7489 11.8317 51.0336 11.8317C51.3183 11.8317 51.5988 11.7605 51.8751 11.6181C52.1597 11.4758 52.3942 11.2539 52.5784 10.9525C52.7626 10.6511 52.8547 10.2617 52.8547 9.78445V6.51895H54.1107ZM55.2528 12.8364V6.51895H56.446V8.2145L56.1069 8.10146C56.2743 7.61582 56.559 7.23066 56.9609 6.94598C57.3712 6.6613 57.8401 6.51895 58.3676 6.51895H58.983V7.67444H58.1666C57.8317 7.67444 57.5387 7.75398 57.2875 7.91307C57.0446 8.06378 56.8521 8.2773 56.7097 8.55361C56.5757 8.82992 56.5088 9.15647 56.5088 9.53325V12.8364H55.2528ZM61.1252 13.0123C60.6982 13.0123 60.313 12.9285 59.9697 12.7611C59.6348 12.5936 59.371 12.3633 59.1785 12.0703C58.9859 11.7689 58.8896 11.4256 58.8896 11.0404C58.8896 10.4627 59.0905 10.0021 59.4925 9.65885C59.8944 9.30718 60.4637 9.10204 61.2006 9.04343L63.6371 8.84248V9.9226L61.4141 10.0984C60.987 10.1319 60.6731 10.224 60.4721 10.3747C60.2711 10.5255 60.1707 10.7306 60.1707 10.9902C60.1707 11.2414 60.2795 11.4507 60.4972 11.6181C60.7149 11.7772 60.9912 11.8568 61.3262 11.8568C61.6778 11.8568 61.996 11.773 62.2807 11.6056C62.5737 11.4381 62.804 11.2162 62.9715 10.9399C63.1389 10.6552 63.2227 10.3496 63.2227 10.0231V8.99319C63.2227 8.54942 63.0803 8.18519 62.7956 7.90051C62.5193 7.61582 62.1509 7.47348 61.6904 7.47348C61.3052 7.47348 60.9829 7.56559 60.7233 7.74979C60.4721 7.934 60.3046 8.17682 60.2209 8.47825H60.0828L59.0026 8.17682C59.1701 7.61582 59.4883 7.16787 59.9572 6.83294C60.426 6.49802 61.0038 6.33056 61.6904 6.33056C62.5696 6.33056 63.252 6.59012 63.7376 7.10925C64.2232 7.62001 64.466 8.34009 64.466 9.2695V12.8364H63.3106V11.0027L63.7627 11.1409C63.6622 11.4842 63.4822 11.7982 63.2227 12.0829C62.9715 12.3675 62.6658 12.5936 62.3058 12.7611C61.9458 12.9285 61.5522 13.0123 61.1252 13.0123ZM65.742 12.8364V3.79352L66.9603 3.64281L66.998 3.74328V12.8364H65.742ZM74.0211 12.8364L70.8436 4.30847L70.7682 4.04471H72.0242L75.365 12.7359V12.8364H74.0211ZM67.4274 12.8364V12.7359L70.7682 4.04471H72.0242L71.9237 4.30847L68.7461 12.8364H67.4274ZM68.8089 10.6636L69.1857 9.4579H73.7197L74.0965 10.6636H68.8089ZM75.7254 12.8364V6.51895H76.9186V8.2145L76.5795 8.10146C76.7469 7.61582 77.0316 7.23066 77.4335 6.94598C77.8438 6.6613 78.3127 6.51895 78.8402 6.51895H79.4556V7.67444H78.6392C78.3043 7.67444 78.0113 7.75398 77.7601 7.91307C77.5173 8.06378 77.3247 8.2773 77.1823 8.55361C77.0484 8.82992 76.9814 9.15647 76.9814 9.53325V12.8364H75.7254ZM82.5147 13.0123C81.8783 13.0123 81.3173 12.8741 80.8317 12.5978C80.346 12.3131 79.9651 11.9196 79.6888 11.4172C79.4208 10.9148 79.2868 10.3329 79.2868 9.67141C79.2868 9.00994 79.4208 8.4322 79.6888 7.93819C79.9651 7.4358 80.346 7.04646 80.8317 6.77015C81.3173 6.48546 81.8783 6.34312 82.5147 6.34312C83.0087 6.34312 83.4483 6.42685 83.8334 6.59431C84.227 6.76177 84.5619 7.00878 84.8382 7.33533C85.1145 7.6535 85.3196 8.04704 85.4536 8.51593L84.386 8.81736H84.2479C84.1139 8.40708 83.8878 8.08472 83.5697 7.85027C83.2599 7.61582 82.9082 7.4986 82.5147 7.4986C82.1128 7.4986 81.7653 7.5907 81.4722 7.77491C81.1792 7.95912 80.9489 8.2145 80.7814 8.54105C80.6224 8.85922 80.5428 9.23601 80.5428 9.67141C80.5428 10.1068 80.6224 10.4878 80.7814 10.8143C80.9489 11.1409 81.1792 11.3963 81.4722 11.5805C81.7653 11.7563 82.1128 11.8442 82.5147 11.8442C82.7993 11.8442 83.0589 11.794 83.2934 11.6935C83.5278 11.593 83.7288 11.4465 83.8962 11.2539C84.0721 11.053 84.206 10.8143 84.2981 10.538H84.4363L85.5164 10.8395C85.3657 11.3083 85.148 11.7061 84.8633 12.0326C84.5786 12.3592 84.2395 12.6062 83.846 12.7736C83.4608 12.9327 83.017 13.0123 82.5147 13.0123Z" fill="white"/>
</svg>
