<svg width="175" height="55" viewBox="0 0 175 55" fill="none" xmlns="http://www.w3.org/2000/svg">
<path d="M0.00630002 34.1185C-0.0512278 33.638 0.291647 33.2019 0.772141 33.1443L31.6398 29.4892L39.3439 28.5666L64.4585 25.605C64.9391 25.5475 65.3752 25.8904 65.4328 26.3709L65.9536 30.7211C66.0111 31.2016 65.6683 31.6377 65.1878 31.6953L39.2675 34.7533L27.2233 36.1957L1.50136 39.2346C1.02085 39.2921 0.584661 38.9492 0.52713 38.4687L0.00630002 34.1185Z" fill="white"/>
<path d="M15.143 7.17189C14.9097 6.74793 15.0642 6.21506 15.4882 5.98171L19.3266 3.869C19.7506 3.63566 20.2834 3.79017 20.5168 4.21412L30.1371 21.1673C30.3705 21.5913 30.216 22.1241 29.792 22.3575L25.9535 24.4702C25.5296 24.7035 24.9967 24.549 24.7634 24.1251L15.143 7.17189ZM32.7233 35.5846C32.49 35.1607 32.6445 34.6278 33.0685 34.3945L36.9069 32.2817C37.3309 32.0484 37.8637 32.2029 38.0971 32.6269L39.2675 34.7533L47.9945 50.6079C48.2278 51.0318 48.0733 51.5647 47.6494 51.7981L43.8109 53.9108C43.3869 54.1441 42.8541 53.9896 42.6207 53.5657L33.7717 37.4893L32.7233 35.5846Z" fill="white"/>
<path d="M50.7826 1.59714C51.2363 1.76534 51.4678 2.26955 51.2996 2.72331L50.5383 4.77725L50.2333 5.59337C47.2199 13.5848 43.5694 21.2631 39.3439 28.5666C37.5847 31.6073 35.7258 34.583 33.7717 37.4893C31.2842 41.1891 28.6423 44.7764 25.8555 48.2419C25.5802 48.5842 25.074 48.6236 24.7474 48.3298L21.3235 45.2498C21.0197 44.9765 20.9832 44.5133 21.2387 44.1944C23.3197 41.5975 25.3159 38.9298 27.2233 36.1957C28.7534 34.0023 30.2263 31.766 31.6398 29.4892C36.872 21.0615 41.2907 12.0769 44.7868 2.64543L45.5484 0.591365C45.7167 0.137655 46.2209 -0.093789 46.6746 0.0743994L50.7826 1.59714Z" fill="white"/>
<path d="M85.7929 34.0195L75.3706 18.7046V18.0902H77.6462L88.0913 33.4051V34.0195H85.7929ZM75.3706 34.0195V18.0902H77.6462V34.0195H75.3706ZM85.7929 34.0195V18.0902H88.0913V34.0195H85.7929ZM96.009 34.3381C94.8712 34.3381 93.8623 34.0878 92.9824 33.5872C92.1177 33.0714 91.4426 32.3583 90.9571 31.4481C90.4717 30.5378 90.2289 29.4835 90.2289 28.285C90.2289 27.0865 90.4641 26.0397 90.9344 25.1446C91.4198 24.2344 92.0873 23.5289 92.9369 23.0283C93.8016 22.5125 94.7953 22.2546 95.918 22.2546C97.0254 22.2546 97.9888 22.5125 98.808 23.0283C99.6424 23.5441 100.287 24.2723 100.742 25.2129C101.213 26.1383 101.448 27.223 101.448 28.467V28.8084L101.106 29.1497H91.3895V27.1472H100.355L99.1949 27.6023C99.1645 26.9196 98.9976 26.3355 98.6942 25.8501C98.406 25.3646 98.0191 24.9929 97.5337 24.735C97.0634 24.4619 96.5324 24.3254 95.9407 24.3254C95.3035 24.3254 94.7195 24.4771 94.1885 24.7805C93.6575 25.0839 93.2403 25.5087 92.9369 26.0549C92.6487 26.5859 92.5045 27.2079 92.5045 27.9209V28.6036C92.5045 29.3014 92.6562 29.931 92.9597 30.4923C93.2631 31.0385 93.6803 31.4708 94.2113 31.7894C94.7422 32.108 95.3415 32.2673 96.009 32.2673C96.6462 32.2673 97.2075 32.108 97.6929 31.7894C98.1936 31.4557 98.588 31.0157 98.8763 30.4696H99.1493L100.993 31.266C100.553 32.2218 99.9003 32.9727 99.0356 33.5189C98.1708 34.065 97.162 34.3381 96.009 34.3381ZM113.721 22.5732V34.0195H111.559V30.9475L112.174 31.1295C111.946 31.7818 111.605 32.3507 111.149 32.8362C110.694 33.3065 110.156 33.6782 109.534 33.9513C108.927 34.2092 108.267 34.3381 107.554 34.3381C106.75 34.3381 106.022 34.1637 105.369 33.8147C104.717 33.4506 104.201 32.9272 103.822 32.2446C103.443 31.5467 103.253 30.6895 103.253 29.6731V22.5732H105.529V29.0359C105.529 29.7945 105.635 30.4089 105.847 30.8792C106.075 31.3495 106.386 31.6908 106.78 31.9032C107.175 32.1004 107.63 32.199 108.146 32.199C108.661 32.199 109.17 32.0701 109.67 31.8122C110.186 31.5543 110.611 31.1523 110.945 30.6061C111.278 30.06 111.445 29.3545 111.445 28.4898V22.5732H113.721ZM116.245 34.0195V22.5732H118.407V25.6453L117.793 25.4405C118.096 24.5606 118.612 23.8627 119.34 23.3469C120.084 22.8311 120.933 22.5732 121.889 22.5732H123.004V24.6668H121.525C120.918 24.6668 120.387 24.8109 119.932 25.0991C119.492 25.3722 119.143 25.759 118.885 26.2597C118.642 26.7603 118.521 27.352 118.521 28.0347V34.0195H116.245ZM127.34 34.3381C126.567 34.3381 125.869 34.1864 125.247 33.883C124.64 33.5796 124.162 33.1624 123.813 32.6314C123.464 32.0853 123.29 31.4633 123.29 30.7654C123.29 29.7186 123.654 28.8842 124.382 28.2622C125.11 27.6251 126.142 27.2534 127.477 27.1472L131.892 26.7831V28.7401L127.864 29.0587C127.09 29.1194 126.521 29.2863 126.157 29.5593C125.793 29.8324 125.611 30.2041 125.611 30.6744C125.611 31.1295 125.808 31.5088 126.203 31.8122C126.597 32.1004 127.098 32.2446 127.705 32.2446C128.342 32.2446 128.918 32.0928 129.434 31.7894C129.965 31.486 130.382 31.084 130.686 30.5834C130.989 30.0675 131.141 29.5138 131.141 28.9222V27.0561C131.141 26.2521 130.883 25.5922 130.367 25.0764C129.866 24.5606 129.199 24.3027 128.365 24.3027C127.667 24.3027 127.083 24.4695 126.612 24.8033C126.157 25.137 125.854 25.577 125.702 26.1231H125.452L123.495 25.577C123.798 24.5606 124.375 23.7489 125.224 23.1421C126.074 22.5353 127.121 22.2318 128.365 22.2318C129.957 22.2318 131.194 22.7021 132.074 23.6427C132.954 24.5681 133.394 25.8728 133.394 27.5568V34.0195H131.3V30.6971L132.119 30.9475C131.937 31.5695 131.611 32.1384 131.141 32.6542C130.686 33.17 130.132 33.5796 129.48 33.883C128.827 34.1864 128.114 34.3381 127.34 34.3381ZM136.161 34.0195V17.6351L138.368 17.362L138.436 17.5441V34.0195H136.161ZM151.616 34.0195L145.859 18.5681L145.722 18.0902H147.998L154.051 33.8375V34.0195H151.616ZM139.669 34.0195V33.8375L145.722 18.0902H147.998L147.816 18.5681L142.059 34.0195H139.669ZM142.173 30.0827L142.855 27.8981H151.07L151.753 30.0827H142.173ZM155.159 34.0195V22.5732H157.321V25.6453L156.707 25.4405C157.01 24.5606 157.526 23.8627 158.254 23.3469C158.998 22.8311 159.847 22.5732 160.803 22.5732H161.918V24.6668H160.439C159.832 24.6668 159.301 24.8109 158.846 25.0991C158.406 25.3722 158.057 25.759 157.799 26.2597C157.556 26.7603 157.435 27.352 157.435 28.0347V34.0195H155.159ZM167.916 34.3381C166.763 34.3381 165.746 34.0878 164.866 33.5872C163.986 33.0714 163.296 32.3583 162.795 31.4481C162.31 30.5378 162.067 29.4835 162.067 28.285C162.067 27.0865 162.31 26.0397 162.795 25.1446C163.296 24.2344 163.986 23.5289 164.866 23.0283C165.746 22.5125 166.763 22.2546 167.916 22.2546C168.811 22.2546 169.607 22.4063 170.305 22.7097C171.018 23.0131 171.625 23.4607 172.125 24.0523C172.626 24.6288 172.998 25.3419 173.241 26.1914L171.306 26.7376H171.056C170.813 25.9942 170.404 25.4101 169.827 24.9853C169.266 24.5606 168.629 24.3482 167.916 24.3482C167.187 24.3482 166.558 24.515 166.027 24.8488C165.496 25.1826 165.079 25.6453 164.775 26.2369C164.487 26.8134 164.343 27.4961 164.343 28.285C164.343 29.0739 164.487 29.7641 164.775 30.3558C165.079 30.9475 165.496 31.4102 166.027 31.7439C166.558 32.0625 167.187 32.2218 167.916 32.2218C168.431 32.2218 168.902 32.1308 169.326 31.9487C169.751 31.7667 170.115 31.5012 170.419 31.1523C170.737 30.7882 170.98 30.3558 171.147 29.8552H171.397L173.354 30.4013C173.081 31.2509 172.687 31.9715 172.171 32.5631C171.655 33.1548 171.041 33.6023 170.328 33.9058C169.63 34.194 168.826 34.3381 167.916 34.3381Z" fill="white"/>
</svg>
