<svg width="68" height="87" viewBox="0 0 68 87" fill="none" xmlns="http://www.w3.org/2000/svg">
<path d="M1.9021 0.543091C0.851598 0.543091 0 1.34945 0 2.34414V63.9585C0 66.2244 1.84253 68.0584 4.10845 68.0478L12.7599 68.0072C15.0258 67.9966 16.8683 69.8305 16.8683 72.0965V82.4538C16.8683 84.7122 18.6992 86.5431 20.9576 86.5431L66.0979 86.5431C67.1484 86.5431 68 85.7367 68 84.742V57.9608C68 56.7353 66.7353 55.8676 65.5054 56.2494H35.4739C33.2155 56.2494 31.3846 54.4186 31.3846 52.1601V2.34414C31.3846 1.34945 30.533 0.543091 29.4825 0.543091H1.9021Z" fill="#978163"/>
</svg>
