<svg width="96" height="110" viewBox="0 0 96 110" fill="none" xmlns="http://www.w3.org/2000/svg">
<path d="M41.4127 3.54648C45.3203 1.29054 50.1351 1.29045 54.0426 3.54648L88.8092 23.6197C92.7166 25.8758 95.1237 30.0452 95.1237 34.5572V74.7018C95.1237 79.2137 92.7166 83.3831 88.8092 85.6393L54.0426 105.712C50.1351 107.969 45.3203 107.968 41.4127 105.712L6.64612 85.6393C2.73855 83.3832 0.331665 79.2138 0.331665 74.7018V34.5572C0.331665 30.0451 2.73855 25.8758 6.64612 23.6197L41.4127 3.54648ZM68.3873 41.8336C57.3962 22.7965 39.4063 12.6055 28.2057 19.0719C17.0051 25.5385 16.8356 46.2143 27.8268 65.2516C38.818 84.2886 56.8079 94.4789 68.0084 88.0123C79.2088 81.5455 79.3784 60.8707 68.3873 41.8336Z" fill="#425B88"/>
</svg>
