<svg width="59" height="87" viewBox="0 0 59 87" fill="none" xmlns="http://www.w3.org/2000/svg">
<path d="M2.04762 86.5432H15.8301C16.9788 86.5432 17.9027 85.5986 17.8773 84.4502L17.2037 54.0656C17.1782 52.9172 18.1028 51.9732 19.2514 51.9716C29.0388 51.9578 36.8132 51.7475 43.4704 48.546C50.5439 44.9298 58.3571 35.845 58.3571 25.6265C58.3571 11.7734 47.1191 0.543213 33.2562 0.543213H2.04762C0.91675 0.543213 0 1.45996 0 2.59083V15.0685C0 16.1994 0.91675 17.1161 2.04762 17.1161H29.3415C34.1477 17.1161 38.0439 21.0123 38.0439 25.8185C38.0439 30.6247 34.1477 34.5209 29.3415 34.5209H2.04762C0.91675 34.5209 0 35.4376 0 36.5685V84.4956C0 85.6265 0.91675 86.5432 2.04762 86.5432Z" fill="#CEAD9D"/>
</svg>
