<svg width="64" height="75" viewBox="0 0 64 75" fill="none" xmlns="http://www.w3.org/2000/svg">
<path d="M0.364753 53.2033V71.0913C0.364753 72.7137 1.6712 74.0288 3.28278 74.0288H23.3442C24.9558 74.0288 26.2622 72.7137 26.2622 71.0913V29.5987C26.2622 27.9763 27.5686 26.6612 29.1802 26.6612H60.9137C62.5253 26.6612 63.8317 25.346 63.8317 23.7236V3.52811C63.8317 1.90576 62.5253 0.59058 60.9137 0.59058H52.6281C50.6933 0.59058 48.8378 1.3643 47.4697 2.74154L2.50143 48.0104C1.13334 49.3877 0.364753 51.2556 0.364753 53.2033Z" fill="#63867E"/>
<path d="M0 3.8953C0 1.86736 1.63305 0.223389 3.64753 0.223389H21.8852C23.8996 0.223389 25.5327 1.86736 25.5327 3.8953V22.2549C25.5327 24.2828 23.8996 25.9268 21.8852 25.9268H3.64753C1.63305 25.9268 0 24.2828 0 22.2549V3.8953Z" fill="#63867E"/>
</svg>
