<svg width="78" height="87" viewBox="0 0 78 87" fill="none" xmlns="http://www.w3.org/2000/svg">
<path d="M49.4375 36.4397C56.7144 36.8619 63.5191 39.156 68.4932 43.2795C73.4532 47.3915 76.622 53.3447 76.6221 61.177C76.6221 74.8647 65.2273 85.9856 51.1406 85.9856H6.16504L5.96387 85.9758C4.97115 85.878 4.21595 85.0646 4.21582 84.1018L4.21582 62.5334L4.22656 62.343C4.31852 61.4654 5.03738 60.7507 5.96387 60.6594L6.16504 60.6497H44.457C46.1353 60.6497 47.5214 59.3206 47.5215 57.6506V38.2532C47.5215 37.2828 48.2783 36.4841 49.2422 36.4387L49.4375 36.4397ZM24.2773 1.10083L70.2178 1.10083C71.3077 1.10106 72.1659 1.95793 72.166 2.98462V24.553C72.1658 25.5796 71.3077 26.4365 70.2178 26.4368H43.8242C43.1172 26.4368 42.4332 26.676 41.8877 27.1116L41.6631 27.3098L19.2451 49.1497C18.5304 49.8458 17.3943 49.8887 16.627 49.2795L16.4785 49.1497L7.53418 40.4358C-7.34823 25.9379 3.16084 1.10083 24.2773 1.10083Z" fill="#7C7C7C" stroke="#7C7C7C" stroke-width="1.11495"/>
</svg>
